<?xml version="1.0" encoding="UTF-8" standalone="no"?>
<svg
   xmlns:dc="http://purl.org/dc/elements/1.1/"
   xmlns:cc="http://creativecommons.org/ns#"
   xmlns:rdf="http://www.w3.org/1999/02/22-rdf-syntax-ns#"
   xmlns:svg="http://www.w3.org/2000/svg"
   xmlns="http://www.w3.org/2000/svg"
   viewBox="0 0 159.77333 152.65334"
   height="152.65334"
   width="159.77333"
   xml:space="preserve"
   id="svg2"
   version="1.1"><metadata
     id="metadata8"><rdf:RDF><cc:Work
         rdf:about=""><dc:format>image/svg+xml</dc:format><dc:type
           rdf:resource="http://purl.org/dc/dcmitype/StillImage" /></cc:Work></rdf:RDF></metadata><defs
     id="defs6"><clipPath
       id="clipPath20"
       clipPathUnits="userSpaceOnUse"><path
         id="path18"
         d="m 729.43,89.4219 c -100.918,0 -197.692,41.1681 -269.953,111.3981 -0.418,2.028 -0.664,3.832 -0.676,5.364 -0.168,20.132 38.758,32.66 59.043,43.125 -0.606,3.48 -4.102,10.453 -6.614,15.152 C 565.68,169.137 650.121,98.3281 758.164,98.3008 823.609,98.2891 897.656,124.238 979.035,186.449 936.367,147.105 883.926,117.461 824.008,101.691 792.496,93.3906 760.754,89.4219 729.43,89.4219 m 240.297,87.2621 c 3.144,3.222 6.277,6.5 9.394,9.832 0.086,0.062 0.18,0.132 0.266,0.199 0,0 -3.106,-3.824 -9.66,-10.031 m -553.875,74.179 c -28.344,38.516 -50.352,82.805 -63.95,131.637 -27.058,97.199 -16.015,195.203 24.032,277.555 17.812,-9.067 40.304,-14.903 60.601,-14.903 8.34,0 16.305,0.985 23.426,3.137 0.312,0.086 0.582,0.371 0.82,0.785 -38.742,-103.918 -18.726,-260.269 47.77,-379.859 -18.328,-0.543 -55.328,-2.067 -74.16,-8.777 -8.852,-3.157 -14.899,-5.946 -18.539,-9.575 m 45.668,400.172 c 0.535,1.918 0.914,4.36 1.441,5.742 -13.586,9.547 -50.164,25.461 -68.688,36.645 47.184,76.469 121.235,135.551 213.489,161.492 -6.301,-14.937 -24.844,-59.383 -39.426,-99.301 -51.754,-13.547 -86.82,-52.258 -106.816,-104.578" /></clipPath><radialGradient
       id="radialGradient26"
       spreadMethod="pad"
       gradientTransform="matrix(351.459,95.1376,95.1376,-351.459,581.724,455.763)"
       gradientUnits="userSpaceOnUse"
       r="1"
       cy="0"
       cx="0"
       fy="0"
       fx="0"><stop
         id="stop22"
         offset="0"
         style="stop-opacity:1;stop-color:#377ebf" /><stop
         id="stop24"
         offset="1"
         style="stop-opacity:1;stop-color:#234e6d" /></radialGradient><clipPath
       id="clipPath36"
       clipPathUnits="userSpaceOnUse"><path
         id="path34"
         d="M 0,0 H 1019.33 V 1083.69 H 0 Z" /></clipPath><clipPath
       id="clipPath52"
       clipPathUnits="userSpaceOnUse"><path
         id="path50"
         d="m 436.535,645.152 c -20.297,0 -42.789,5.836 -60.601,14.903 5.562,11.437 11.683,22.574 18.339,33.367 18.524,-11.184 55.102,-27.098 68.688,-36.645 -0.527,-1.382 -0.906,-3.824 -1.441,-5.742 -0.243,-0.64 -0.5,-1.316 -0.739,-1.961 -0.238,-0.414 -0.508,-0.699 -0.82,-0.785 -7.121,-2.152 -15.086,-3.137 -23.426,-3.137" /></clipPath><radialGradient
       id="radialGradient58"
       spreadMethod="pad"
       gradientTransform="matrix(351.459,95.1376,95.1376,-351.459,581.724,455.763)"
       gradientUnits="userSpaceOnUse"
       r="1"
       cy="0"
       cx="0"
       fy="0"
       fx="0"><stop
         id="stop54"
         offset="0"
         style="stop-opacity:1;stop-color:#295b82" /><stop
         id="stop56"
         offset="1"
         style="stop-opacity:1;stop-color:#204760" /></radialGradient><clipPath
       id="clipPath76"
       clipPathUnits="userSpaceOnUse"><path
         id="path74"
         d="m 459.477,200.82 c -15.782,15.336 -30.395,32.063 -43.625,50.043 3.64,3.629 9.687,6.418 18.539,9.575 18.832,6.71 55.832,8.234 74.16,8.777 0.89,-1.606 1.769,-3.164 2.679,-4.754 2.512,-4.699 6.008,-11.672 6.614,-15.152 -20.285,-10.465 -59.211,-22.993 -59.043,-43.125 0.012,-1.532 0.258,-3.336 0.676,-5.364" /></clipPath><radialGradient
       id="radialGradient82"
       spreadMethod="pad"
       gradientTransform="matrix(351.459,95.1376,95.1376,-351.459,581.724,455.763)"
       gradientUnits="userSpaceOnUse"
       r="1"
       cy="0"
       cx="0"
       fy="0"
       fx="0"><stop
         id="stop78"
         offset="0"
         style="stop-opacity:1;stop-color:#295b82" /><stop
         id="stop80"
         offset="1"
         style="stop-opacity:1;stop-color:#204760" /></radialGradient><clipPath
       id="clipPath96"
       clipPathUnits="userSpaceOnUse"><path
         id="path94"
         d="m 494.926,848.496 h 454.797 v 296.355 H 494.926 Z" /></clipPath></defs><g
     transform="matrix(1.3333333,0,0,-1.3333333,0,152.65333)"
     id="g10"><g
       transform="scale(0.1)"
       id="g12"><g
         id="g14"><g
           clip-path="url(#clipPath20)"
           id="g16"><path
             id="path28"
             style="fill:url(#radialGradient26);fill-opacity:1;fill-rule:nonzero;stroke:none"
             d="m 729.43,89.4219 c -100.918,0 -197.692,41.1681 -269.953,111.3981 -0.418,2.028 -0.664,3.832 -0.676,5.364 -0.168,20.132 38.758,32.66 59.043,43.125 -0.606,3.48 -4.102,10.453 -6.614,15.152 C 565.68,169.137 650.121,98.3281 758.164,98.3008 823.609,98.2891 897.656,124.238 979.035,186.449 936.367,147.105 883.926,117.461 824.008,101.691 792.496,93.3906 760.754,89.4219 729.43,89.4219 m 240.297,87.2621 c 3.144,3.222 6.277,6.5 9.394,9.832 0.086,0.062 0.18,0.132 0.266,0.199 0,0 -3.106,-3.824 -9.66,-10.031 m -553.875,74.179 c -28.344,38.516 -50.352,82.805 -63.95,131.637 -27.058,97.199 -16.015,195.203 24.032,277.555 17.812,-9.067 40.304,-14.903 60.601,-14.903 8.34,0 16.305,0.985 23.426,3.137 0.312,0.086 0.582,0.371 0.82,0.785 -38.742,-103.918 -18.726,-260.269 47.77,-379.859 -18.328,-0.543 -55.328,-2.067 -74.16,-8.777 -8.852,-3.157 -14.899,-5.946 -18.539,-9.575 m 45.668,400.172 c 0.535,1.918 0.914,4.36 1.441,5.742 -13.586,9.547 -50.164,25.461 -68.688,36.645 47.184,76.469 121.235,135.551 213.489,161.492 -6.301,-14.937 -24.844,-59.383 -39.426,-99.301 -51.754,-13.547 -86.82,-52.258 -106.816,-104.578" /></g></g><g
         id="g30"><g
           clip-path="url(#clipPath36)"
           id="g32"><path
             id="path38"
             style="fill:#377ebf;fill-opacity:1;fill-rule:nonzero;stroke:none"
             d="m 548.141,1049.99 c -24.153,-2.74 -48.024,-7.22 -71.371,-13.55 C 207.555,963.563 48.3984,686.242 121.285,417.023 182.207,191.992 385.969,43.8594 608.434,43.8594 c 43.679,0 88.086,5.7109 132.269,17.6719 50.797,5.6992 99.285,20.5585 144.199,42.6877 32.36,22.75 63.977,49.976 94.313,82.394 C 936.516,147.188 884.008,117.48 824.008,101.691 792.496,93.3906 760.754,89.4219 729.43,89.4219 559.266,89.4219 400.918,206.461 351.902,382.5 293.867,590.969 411.129,803.211 613.84,856.57 l 1.031,0.266 -66.73,193.154" /></g></g><path
         id="path40"
         style="fill:#758291;fill-opacity:1;fill-rule:nonzero;stroke:none"
         d="m 589.363,930.668 -41.222,119.322 c -10.469,-1.19 -20.883,-2.7 -31.227,-4.56 24.07,4.52 40.43,5.76 46.676,6.14 22.441,-34.83 27.058,-81.597 25.773,-120.902 m -136.886,98.552 c -0.016,0.01 -0.028,0.01 -0.043,0.03 1.129,0.35 2.254,0.7 3.371,1.04 -1.11,-0.36 -2.223,-0.71 -3.328,-1.07" /><path
         id="path42"
         style="fill:#295b82;fill-opacity:1;fill-rule:nonzero;stroke:none"
         d="m 579.555,853.867 c 0,0 -38.836,126.707 -127.078,175.353 1.105,0.36 2.218,0.71 3.328,1.07 23.601,7.21 44.25,11.98 61.109,15.14 10.344,1.86 20.758,3.37 31.227,4.56 l 41.222,-119.322 c -1.398,-42.828 -9.808,-76.801 -9.808,-76.801" /><path
         id="path44"
         style="fill:#758291;fill-opacity:1;fill-rule:nonzero;stroke:none"
         d="m 460.781,649.074 c 0.239,0.645 0.496,1.321 0.739,1.961 -0.215,-0.773 -0.454,-1.461 -0.739,-1.961" /><g
         id="g46"><g
           clip-path="url(#clipPath52)"
           id="g48"><path
             id="path60"
             style="fill:url(#radialGradient58);fill-opacity:1;fill-rule:nonzero;stroke:none"
             d="m 436.535,645.152 c -20.297,0 -42.789,5.836 -60.601,14.903 5.562,11.437 11.683,22.574 18.339,33.367 18.524,-11.184 55.102,-27.098 68.688,-36.645 -0.527,-1.382 -0.906,-3.824 -1.441,-5.742 -0.243,-0.64 -0.5,-1.316 -0.739,-1.961 -0.238,-0.414 -0.508,-0.699 -0.82,-0.785 -7.121,-2.152 -15.086,-3.137 -23.426,-3.137" /></g></g><path
         id="path62"
         style="fill:#295b82;fill-opacity:1;fill-rule:nonzero;stroke:none"
         d="m 375.934,660.055 c -19.27,9.804 -33.067,23.39 -32.696,37.457 0.446,16.804 53.254,92.078 61.211,96 l 1.528,-0.875 c 3.945,-4.5 13.226,-8.692 14.511,-15.254 1.617,-8.285 -13.242,-27.934 -17.984,-34.926 -8.559,-12.652 -19.543,-22.613 -19.301,-39.281 0.031,-2.281 4.371,-5.711 11.07,-9.754 -6.656,-10.793 -12.777,-21.93 -18.339,-33.367" /><path
         id="path64"
         style="fill:#377ebf;fill-opacity:1;fill-rule:nonzero;stroke:none"
         d="m 404.449,793.512 c 0,0 -44.297,-61.196 -44.902,-92.442 -0.606,-31.246 122.902,-52.199 122.902,-52.199 0,0 -4.945,-10.402 -1.636,-28.605 4.57,-4.918 13.125,-19.762 18.433,-20.266 5.32,-0.504 25.484,-1.437 27.707,-1.887 3.43,-0.691 10.801,13.93 5.785,14.516 -5.011,0.582 -24.254,3.473 -24.254,3.473 0,0 -9.675,11.867 -9.644,12.921 0.012,1.172 11.023,-9.64 11.023,-9.64 0,0 22.395,-1.383 26.614,-0.242 4.222,1.144 4.546,15.484 -0.383,15.761 -4.938,0.286 -15.981,-0.761 -20.254,0.672 -6.371,7.989 -6.84,20.481 -6.84,20.481 0,0 1.277,8.441 2.934,16.66 1.66,8.219 17.113,4.957 22.265,5.058 5.156,0.106 6.145,15.586 0.164,14.942 -3.867,-0.078 -28.394,-1.543 -32.191,-9.043 -3.797,-7.5 -9.152,-16.399 -9.152,-16.399 0,0 -64.551,13.606 -88.832,45.883 11.41,5.68 32.882,55.516 32.882,55.516" /><path
         id="path66"
         style="fill:#295b82;fill-opacity:1;fill-rule:nonzero;stroke:none"
         d="m 479.121,132.691 -12.266,7.039 c 0.372,0.168 0.719,0.372 1.047,0.579 3.618,-2.848 7.356,-5.411 11.219,-7.618" /><path
         id="path68"
         style="fill:#758291;fill-opacity:1;fill-rule:nonzero;stroke:none"
         d="m 511.23,264.461 c -0.91,1.59 -1.789,3.148 -2.679,4.754 0.015,0 0.035,0 0.054,0 0,0 1.141,-1.981 2.625,-4.754" /><g
         id="g70"><g
           clip-path="url(#clipPath76)"
           id="g72"><path
             id="path84"
             style="fill:url(#radialGradient82);fill-opacity:1;fill-rule:nonzero;stroke:none"
             d="m 459.477,200.82 c -15.782,15.336 -30.395,32.063 -43.625,50.043 3.64,3.629 9.687,6.418 18.539,9.575 18.832,6.71 55.832,8.234 74.16,8.777 0.89,-1.606 1.769,-3.164 2.679,-4.754 2.512,-4.699 6.008,-11.672 6.614,-15.152 -20.285,-10.465 -59.211,-22.993 -59.043,-43.125 0.012,-1.532 0.258,-3.336 0.676,-5.364" /></g></g><path
         id="path86"
         style="fill:#295b82;fill-opacity:1;fill-rule:nonzero;stroke:none"
         d="m 467.902,140.309 c -24.769,19.539 -43.476,52.621 -52.683,81.386 -4.883,15.282 -5.242,23.317 0.633,29.168 13.23,-17.98 27.843,-34.707 43.625,-50.043 3.679,-17.84 20.675,-52.496 8.425,-60.511" /><path
         id="path88"
         style="fill:#377ebf;fill-opacity:1;fill-rule:nonzero;stroke:none"
         d="m 471.145,135.469 c 0,0 -39.094,64.644 -37.118,95.832 1.981,31.191 126.809,41.879 126.809,41.879 0,0 -4.09,10.781 0.719,28.652 4.953,4.523 14.699,18.598 20.039,18.668 5.34,0.063 25.511,-0.672 27.765,-0.402 3.469,0.402 9.618,-14.778 4.571,-14.95 -5.047,-0.168 -24.453,-1.449 -24.453,-1.449 0,0 -10.622,-11.043 -10.688,-12.09 -0.066,-1.168 11.785,8.696 11.785,8.696 0,0 22.43,-0.465 26.543,-1.953 4.113,-1.485 3.258,-15.801 -1.672,-15.68 -4.953,0.129 -15.871,2.074 -20.246,1.008 -7.011,-7.434 -8.504,-19.852 -8.504,-19.852 0,0 0.563,-8.515 1.547,-16.848 0.977,-8.32 16.653,-6.347 21.774,-6.875 5.125,-0.523 4.832,-16.027 -1.071,-14.894 -3.847,0.391 -28.183,3.871 -31.343,11.664 -3.161,7.789 -7.766,17.102 -7.766,17.102 0,0 -65.457,-8.243 -92.316,-38.399 10.918,-6.605 28.199,-58.047 28.199,-58.047" /><g
         id="g90"><g
           clip-path="url(#clipPath96)"
           id="g92"><path
             id="path98"
             style="fill:#40b93c;fill-opacity:1;fill-rule:nonzero;stroke:none"
             d="m 527.629,1144.84 c -16.734,0 -28.309,-3.97 -32.703,-12.83 71.875,-86.2 86.812,-191.744 85.75,-269.112 l 215.949,-14.402 146.656,24.172 c 9.524,13.578 8.051,29.91 -1.578,47.754 -24.027,44.469 -98.828,98.288 -180.644,142.068 7.394,-6.91 13.011,-15.89 15.855,-26.38 8.121,-29.98 -9.613,-60.876 -39.594,-68.989 -4.922,-1.336 -9.871,-1.969 -14.73,-1.969 -24.781,0 -47.485,16.496 -54.266,41.558 -8.121,29.99 9.61,60.88 39.59,69 4.922,1.33 9.867,1.97 14.731,1.97 3.816,0 7.582,-0.39 11.242,-1.14 -79.707,39.78 -161.453,68.3 -206.258,68.3" /><path
             id="path100"
             style="fill:#3ba03c;fill-opacity:1;fill-rule:nonzero;stroke:none"
             d="m 722.645,1077.68 c -4.864,0 -9.809,-0.64 -14.731,-1.97 -29.98,-8.12 -47.711,-39.01 -39.59,-69 6.781,-25.062 29.485,-41.558 54.266,-41.558 4.859,0 9.808,0.633 14.73,1.969 29.981,8.113 47.715,39.009 39.594,68.989 -2.844,10.49 -8.461,19.47 -15.855,26.38 -7.567,7.06 -16.981,11.96 -27.172,14.05 -3.66,0.75 -7.426,1.14 -11.242,1.14 m 4.195,-111.828 c -16.156,0 -30.961,10.757 -35.391,27.093 -5.289,19.545 6.281,39.685 25.824,44.985 3.211,0.87 6.438,1.28 9.606,1.28 16.152,0 30.941,-10.76 35.367,-27.1 5.293,-19.551 -6.25,-39.68 -25.805,-44.973 -3.211,-0.871 -6.429,-1.285 -9.601,-1.285" /></g></g><path
         id="path102"
         style="fill:#3ba03c;fill-opacity:1;fill-rule:nonzero;stroke:none"
         d="m 580.676,862.898 c 3.113,-36.628 -12.297,-107.277 -12.297,-107.277 0,0 122.652,60.402 334.949,89.387 36.852,7.387 40.766,29.594 40.766,29.594 0,0 -288.406,-60.375 -295.141,36.218 -66.781,50.551 -67.746,-42.41 -68.277,-47.922" /><path
         id="path104"
         style="fill:#3ba03c;fill-opacity:1;fill-rule:nonzero;stroke:none"
         d="m 881.637,497.059 c 0,0 -0.36,2.011 -1.039,5.91 -0.379,4.699 -1.078,11.527 0.515,20.066 1.442,8.586 5.149,19.09 12.864,29.512 7.671,10.301 19.949,20.367 36.496,25.254 2.257,0.547 3.742,1.179 6.734,1.64 1.809,0.317 3.637,0.637 5.492,0.965 4.012,0.43 9.649,1.032 14.004,0.715 9.293,-0.187 19.125,-1.875 28.746,-5.582 19.171,-7.242 37.971,-22.32 48.981,-44.465 1.44,-2.722 2.7,-5.554 3.72,-8.519 1.19,-2.91 2.16,-5.907 2.89,-9.008 l 1.22,-4.649 0.79,-4.769 c 0.38,-2.793 1,-4.609 1.17,-8.434 0.21,-3.402 0.51,-6.996 0.52,-10.363 -0.14,-3.246 -0.28,-6.512 -0.41,-9.805 -0.72,-6.55 -1.74,-13.199 -3.57,-19.773 -7.04,-26.258 -24.53,-51.895 -50.963,-68.047 -3.231,-2.129 -6.656,-3.941 -10.203,-5.598 -3.473,-1.824 -7.106,-3.304 -10.844,-4.613 -3.684,-1.484 -7.488,-2.613 -11.383,-3.543 -2.195,-0.539 -3.297,-0.926 -6.422,-1.558 l -4.679,-0.899 c -16.133,-2.633 -31.723,-2.707 -48.008,0.078 -32.223,5.348 -63.895,22.621 -86.965,49.774 -11.492,13.566 -20.762,29.562 -26.863,47.007 -1.559,4.356 -2.797,8.825 -3.934,13.325 l -0.773,3.398 -0.383,1.707 -0.192,0.852 -0.261,1.551 -0.989,5.363 c -0.613,3.691 -1.382,9.664 -1.703,13.902 -0.398,4.512 -0.605,9.047 -0.636,13.613 -0.594,36.567 11.199,74.25 33.496,105.489 22.156,31.308 55.238,56.191 93.465,68.39 9.296,3.067 19.8,5.461 28.726,6.914 3.426,0.707 8.836,1.411 13.856,2.043 5.027,0.618 9.492,0.93 14.293,1.309 18.918,1.074 38.183,0.32 57.365,-2.981 38.24,-6.328 77.04,-22.128 108.76,-49.449 15.93,-13.457 29.51,-29.898 40.66,-47.648 10.7,-18.012 18.93,-37.352 24,-57.09 2.53,-9.863 4.4,-19.77 5.73,-29.641 1.23,-11.554 1.79,-14.468 2.4,-28.828 0.35,-20.711 -1.78,-39.547 -5.06,-57.773 -6.71,-36.336 -17.53,-70.211 -31.93,-102.078 C 1133,266.926 1092.91,210.641 1045.73,164.957 998.699,119.121 944.492,84.3984 889.547,61.9219 834.555,39.2383 779.34,28.5 728.809,25.2305 c -25.297,-1.7617 -49.524,-1.4414 -72.36,0.0078 -22.844,1.3515 -44.336,3.9219 -64.316,7.1914 -39.988,6.3906 -74.012,15.1601 -101.524,23.6719 -27.543,8.3984 -48.691,16.2265 -63.035,21.6875 -14.273,5.6211 -21.886,8.6211 -21.886,8.6211 l -0.176,0.4101 0.383,0.1914 c 0,0 7.906,-2.0508 22.726,-5.8906 14.852,-3.6719 36.692,-8.8398 64.692,-13.7695 27.98,-4.8907 62.125,-9.7422 101.261,-11.75 39.098,-2.1407 83.278,-0.6133 130.004,6.8398 46.668,7.6367 95.828,22.5391 142.586,47.4496 46.777,24.738 90.938,59.492 127.707,102.968 18.359,21.743 35.089,45.403 49.499,70.746 14.69,25.133 27.34,51.84 37.25,79.512 9.65,27.66 18,56.098 21.52,84.02 1.89,13.851 2.57,27.617 1.77,39.515 -0.03,1.938 -1.93,15.18 -2.45,19.844 -0.95,6.285 -2.22,12.406 -3.84,18.328 -6.42,23.699 -17.93,44.117 -34.65,60.485 -16.68,16.304 -38.86,28.535 -63.58,34.468 -12.324,3.004 -25.199,4.352 -38.089,4.5 -3.141,-0.062 -6.625,-0.074 -9.504,-0.234 -2.875,-0.195 -5.363,-0.195 -9.754,-0.789 -6.777,-0.621 -11.738,-1.68 -17.508,-3.188 -22.195,-5.871 -42.137,-19.214 -56.242,-37.195 -28.809,-35.18 -32.496,-90.09 -8.957,-122.84 11.758,-16.918 29.687,-29.418 49.191,-34.554 9.539,-2.723 20.243,-3.524 29.36,-2.961 l 4.746,0.468 2.836,0.469 c 2.304,0.293 4.582,0.703 6.761,1.402 2.243,0.524 4.446,1.149 6.54,2.055 2.164,0.742 4.285,1.578 6.265,2.688 16.344,7.968 29.043,22.355 35.285,38.586 1.62,4.05 2.68,8.226 3.64,12.41 l 0.93,6.328 0.38,5.59 c 0.34,1.472 -0.17,4.84 -0.25,7.222 l -0.13,1.942 -0.06,0.972 -0.04,0.489 c 0.05,-0.254 -0.16,1.246 0.1,-0.446 l -0.47,2.887 c -0.21,1.957 -0.62,3.852 -1.18,5.688 -0.4,1.894 -0.99,3.714 -1.72,5.472 -5.286,14.352 -16.297,25.582 -28.649,31.789 -6.152,3.231 -12.687,5.176 -19.109,6.032 -3.489,0.625 -5.602,0.558 -9.074,0.691 -1.879,-0.117 -3.735,-0.234 -5.567,-0.348 -0.652,0.078 -2.644,-0.375 -3.891,-0.511 -11.332,-1.934 -20.648,-7.762 -26.992,-14.5 -6.347,-6.805 -10.074,-14.219 -11.867,-20.543 -1.98,-6.418 -1.926,-11.489 -2.168,-14.645 0.25,-3.949 0.379,-5.984 0.379,-5.984 0.242,-3.879 -2.707,-7.219 -6.582,-7.461 -3.609,-0.227 -6.754,2.316 -7.363,5.801" /><path
         id="path106"
         style="fill:#307633;fill-opacity:1;fill-rule:nonzero;stroke:none"
         d="m 405.512,86.8203 c 0,0 15.66,-4.6211 42.894,-13.1601 13.508,-4.711 30.379,-8.6094 49.52,-13.5391 19,-5.4297 41.09,-8.9922 64.847,-13.9414 11.868,-2.6094 24.528,-3.5508 37.43,-5.5 6.473,-0.8906 13.051,-1.7891 19.723,-2.7109 6.719,-0.4688 13.543,-0.9493 20.457,-1.4375 13.82,-0.9922 27.992,-2.2813 42.523,-1.8125 14.512,0.1015 29.328,-0.4493 44.321,1.1093 7.496,0.5235 15.058,1.0508 22.675,1.5821 7.586,0.7304 15.153,2.1484 22.797,3.1992 7.614,1.2812 15.383,1.9609 22.981,3.7304 7.601,1.6993 15.25,3.4219 22.925,5.129 3.821,0.9023 7.704,1.621 11.508,2.6601 l 11.325,3.4922 c 7.55,2.3398 15.132,4.668 22.726,7.0195 l 22.184,8.8086 11.086,4.461 10.73,5.2695 c 29.149,13.0117 56.07,30.4923 81.293,49.1483 25.263,18.75 47.703,40.309 68.173,62.262 20.38,22.105 37.78,45.543 53.35,68.379 15.35,23.023 28.02,45.992 39.05,67.558 10.54,21.797 19.35,42.235 26.19,60.758 6.59,18.578 11.73,35.07 14.76,48.926 3.3,13.801 4.92,24.852 5.66,32.441 0.48,7.582 0.4,11.688 0.4,11.688 0,0 0.47,-4.047 0.7,-11.727 -0.12,-7.66 -0.41,-19.011 -2.9,-33.156 -2.08,-14.223 -6.09,-31.211 -11.47,-50.508 -5.56,-19.238 -13.03,-40.621 -22.81,-63.308 -10.07,-22.536 -21.84,-46.68 -36.85,-70.797 -15.12,-23.989 -32.07,-48.879 -52.79,-72.098 -4.84,-6.086 -10.55,-11.492 -15.9,-17.308 -5.44,-5.735 -10.83,-11.594 -16.84,-16.907 -5.89,-5.441 -11.81,-10.91 -17.76,-16.422 -6.34,-5.07 -12.71,-10.168 -19.1,-15.281 C 975.188,95.1914 947.191,76.7188 916.813,62.9219 L 905.551,57.5117 893.938,52.9219 870.703,43.8906 C 862.766,41.5 854.844,39.1094 846.941,36.7305 l -11.828,-3.5391 c -3.968,-1.0508 -8.008,-1.793 -12,-2.6914 -8,-1.7109 -15.968,-3.4219 -23.898,-5.1211 -7.942,-1.6484 -16.008,-2.207 -23.934,-3.3594 -7.945,-0.9179 -15.816,-2.1992 -23.683,-2.789 -7.875,-0.3789 -15.7,-0.7617 -23.457,-1.1289 -15.508,-1.211 -30.754,-0.5118 -45.657,0.039 -14.929,0.0703 -29.398,1.8985 -43.484,3.418 -7.043,0.75 -13.984,1.5 -20.824,2.2305 -6.77,1.2109 -13.43,2.4023 -19.985,3.582 -13.039,2.6406 -25.812,4.2383 -37.711,7.4805 -23.886,6.0468 -45.824,11.2382 -64.667,18.0898 -18.973,6.3086 -35.586,11.3984 -48.711,17.0274 -26.528,10.5625 -41.59,16.8515 -41.59,16.8515" /></g></g></svg>
