<svg xmlns="http://www.w3.org/2000/svg" height="152.653" width="159.773"><defs><clipPath id="a" clipPathUnits="userSpaceOnUse"><path d="M729.43 89.422c-100.918 0-197.692 41.168-269.953 111.398-.418 2.028-.664 3.832-.676 5.364-.168 20.132 38.758 32.66 59.043 43.125-.606 3.48-4.102 10.453-6.614 15.152 54.45-95.324 138.891-166.133 246.934-166.16 65.445-.012 139.492 25.937 220.871 88.148-42.668-39.344-95.109-68.988-155.027-84.758-31.512-8.3-63.254-12.27-94.578-12.27m240.297 87.263a645.36 645.36 0 0 1 9.394 9.832c.086.062.18.132.266.199 0 0-3.106-3.824-9.66-10.031m-553.875 74.179c-28.344 38.516-50.352 82.805-63.95 131.637-27.058 97.199-16.015 195.203 24.032 277.555 17.812-9.067 40.304-14.903 60.601-14.903 8.34 0 16.305.985 23.426 3.137.312.086.582.371.82.785-38.742-103.918-18.726-260.269 47.77-379.859-18.328-.543-55.328-2.067-74.16-8.777-8.852-3.157-14.899-5.946-18.539-9.575m45.668 400.172c.535 1.918.914 4.36 1.441 5.742-13.586 9.547-50.164 25.461-68.688 36.645 47.184 76.469 121.235 135.551 213.489 161.492-6.301-14.937-24.844-59.383-39.426-99.301-51.754-13.547-86.82-52.258-106.816-104.578"/></clipPath><radialGradient id="b" spreadMethod="pad" gradientTransform="scale(364.108 -364.108) rotate(-15.147 -3.909 -6.634)" gradientUnits="userSpaceOnUse" r="1" cy="0" cx="0" fy="0" fx="0"><stop offset="0" stop-color="#377ebf"/><stop offset="1" stop-color="#234e6d"/></radialGradient><clipPath id="c" clipPathUnits="userSpaceOnUse"><path d="M0 0h1019.33v1083.69H0z"/></clipPath><clipPath id="d" clipPathUnits="userSpaceOnUse"><path d="M436.535 645.152c-20.297 0-42.789 5.836-60.601 14.903a381.052 381.052 0 0 0 18.339 33.367c18.524-11.184 55.102-27.098 68.688-36.645-.527-1.382-.906-3.824-1.441-5.742-.243-.64-.5-1.316-.739-1.961-.238-.414-.508-.699-.82-.785-7.121-2.152-15.086-3.137-23.426-3.137"/></clipPath><radialGradient id="e" spreadMethod="pad" gradientTransform="scale(364.108 -364.108) rotate(-15.147 -3.909 -6.634)" gradientUnits="userSpaceOnUse" r="1" cy="0" cx="0" fy="0" fx="0"><stop offset="0" stop-color="#295b82"/><stop offset="1" stop-color="#204760"/></radialGradient><clipPath id="f" clipPathUnits="userSpaceOnUse"><path d="M459.477 200.82a401.969 401.969 0 0 0-43.625 50.043c3.64 3.629 9.687 6.418 18.539 9.575 18.832 6.71 55.832 8.234 74.16 8.777.89-1.606 1.769-3.164 2.679-4.754 2.512-4.699 6.008-11.672 6.614-15.152-20.285-10.465-59.211-22.993-59.043-43.125.012-1.532.258-3.336.676-5.364"/></clipPath><radialGradient id="g" spreadMethod="pad" gradientTransform="scale(364.108 -364.108) rotate(-15.147 -3.909 -6.634)" gradientUnits="userSpaceOnUse" r="1" cy="0" cx="0" fy="0" fx="0"><stop offset="0" stop-color="#295b82"/><stop offset="1" stop-color="#204760"/></radialGradient><clipPath id="h" clipPathUnits="userSpaceOnUse"><path d="M494.926 848.496h454.797v296.355H494.926z"/></clipPath></defs><g clip-path="url(#a)" transform="matrix(.13333 0 0 -.13333 0 152.653)"><path d="M729.43 89.422c-100.918 0-197.692 41.168-269.953 111.398-.418 2.028-.664 3.832-.676 5.364-.168 20.132 38.758 32.66 59.043 43.125-.606 3.48-4.102 10.453-6.614 15.152 54.45-95.324 138.891-166.133 246.934-166.16 65.445-.012 139.492 25.937 220.871 88.148-42.668-39.344-95.109-68.988-155.027-84.758-31.512-8.3-63.254-12.27-94.578-12.27m240.297 87.263a645.36 645.36 0 0 1 9.394 9.832c.086.062.18.132.266.199 0 0-3.106-3.824-9.66-10.031m-553.875 74.179c-28.344 38.516-50.352 82.805-63.95 131.637-27.058 97.199-16.015 195.203 24.032 277.555 17.812-9.067 40.304-14.903 60.601-14.903 8.34 0 16.305.985 23.426 3.137.312.086.582.371.82.785-38.742-103.918-18.726-260.269 47.77-379.859-18.328-.543-55.328-2.067-74.16-8.777-8.852-3.157-14.899-5.946-18.539-9.575m45.668 400.172c.535 1.918.914 4.36 1.441 5.742-13.586 9.547-50.164 25.461-68.688 36.645 47.184 76.469 121.235 135.551 213.489 161.492-6.301-14.937-24.844-59.383-39.426-99.301-51.754-13.547-86.82-52.258-106.816-104.578" fill="url(#b)"/></g><g clip-path="url(#c)" transform="matrix(.13333 0 0 -.13333 0 152.653)"><path d="M548.141 1049.99c-24.153-2.74-48.024-7.22-71.371-13.55-269.215-72.877-428.372-350.198-355.485-619.417C182.207 191.992 385.969 43.859 608.434 43.859c43.679 0 88.086 5.711 132.269 17.672 50.797 5.7 99.285 20.559 144.199 42.688 32.36 22.75 63.977 49.976 94.313 82.394-42.699-39.425-95.207-69.133-155.207-84.922-31.512-8.3-63.254-12.27-94.578-12.27-170.164 0-328.512 117.04-377.528 293.079-58.035 208.469 59.227 420.711 261.938 474.07l1.031.266-66.73 193.154" fill="#377ebf"/></g><path d="M78.582 28.564l-5.497-15.91c-1.395.16-2.784.36-4.163.609 3.21-.603 5.39-.768 6.223-.819 2.992 4.644 3.608 10.88 3.437 16.12M60.33 15.424c-.002-.001-.003-.001-.005-.004l.449-.139-.444.143" fill="#758291"/><path d="M77.274 38.804S72.096 21.91 60.33 15.424l.444-.143a75.712 75.712 0 0 1 8.148-2.018c1.38-.248 2.768-.45 4.163-.608l5.497 15.91c-.187 5.71-1.308 10.24-1.308 10.24" fill="#295b82"/><path d="M61.437 66.11l.099-.261c-.029.103-.06.194-.099.261" fill="#758291"/><g clip-path="url(#d)" transform="matrix(.13333 0 0 -.13333 0 152.653)"><path d="M436.535 645.152c-20.297 0-42.789 5.836-60.601 14.903a381.052 381.052 0 0 0 18.339 33.367c18.524-11.184 55.102-27.098 68.688-36.645-.527-1.382-.906-3.824-1.441-5.742-.243-.64-.5-1.316-.739-1.961-.238-.414-.508-.699-.82-.785-7.121-2.152-15.086-3.137-23.426-3.137" fill="url(#e)"/></g><path d="M50.125 64.646c-2.57-1.307-4.41-3.119-4.36-4.994.06-2.24 7.1-12.277 8.162-12.8l.203.116c.526.6 1.764 1.16 1.935 2.034.216 1.105-1.766 3.725-2.398 4.657-1.141 1.687-2.606 3.015-2.573 5.238.004.304.583.761 1.476 1.3a50.807 50.807 0 0 0-2.445 4.449" fill="#295b82"/><path d="M53.927 46.852s-5.907 8.16-5.987 12.325c-.081 4.166 16.387 6.96 16.387 6.96s-.66 1.387-.219 3.814c.61.656 1.75 2.635 2.458 2.702.71.068 3.398.192 3.694.252.458.092 1.44-1.857.772-1.936-.668-.077-3.234-.463-3.234-.463s-1.29-1.582-1.286-1.722c.002-.157 1.47 1.285 1.47 1.285s2.986.184 3.548.032c.563-.152.606-2.064-.05-2.101-.66-.038-2.132.101-2.701-.09-.85-1.065-.912-2.73-.912-2.73s.17-1.126.39-2.222c.222-1.096 2.283-.66 2.97-.674.687-.015.819-2.079.021-1.993-.515.01-3.785.206-4.292 1.206-.506 1-1.22 2.187-1.22 2.187s-8.607-1.815-11.844-6.118c1.521-.757 4.384-7.402 4.384-7.402" fill="#377ebf"/><path d="M63.883 134.961l-1.636-.938c.05-.023.096-.05.14-.078.482.38.98.722 1.496 1.016" fill="#295b82"/><path d="M68.164 117.392c-.121-.212-.239-.42-.357-.634h.007s.152.264.35.634" fill="#758291"/><g clip-path="url(#f)" transform="matrix(.13333 0 0 -.13333 0 152.653)"><path d="M459.477 200.82a401.969 401.969 0 0 0-43.625 50.043c3.64 3.629 9.687 6.418 18.539 9.575 18.832 6.71 55.832 8.234 74.16 8.777.89-1.606 1.769-3.164 2.679-4.754 2.512-4.699 6.008-11.672 6.614-15.152-20.285-10.465-59.211-22.993-59.043-43.125.012-1.532.258-3.336.676-5.364" fill="url(#g)"/></g><path d="M62.387 133.945c-3.303-2.605-5.797-7.016-7.024-10.851-.652-2.038-.7-3.109.084-3.89a53.596 53.596 0 0 0 5.817 6.673c.49 2.379 2.756 7 1.123 8.068" fill="#295b82"/><path d="M62.82 134.59s-5.213-8.618-4.95-12.777c.264-4.159 16.908-5.584 16.908-5.584s-.545-1.437.096-3.82c.66-.603 1.96-2.48 2.672-2.489.712-.008 3.401.09 3.702.054.462-.054 1.282 1.97.61 1.993-.674.022-3.261.193-3.261.193s-1.416 1.473-1.425 1.612c-.009.156 1.571-1.16 1.571-1.16s2.99.063 3.54.261c.548.198.434 2.107-.224 2.09-.66-.016-2.116-.276-2.7-.134-.934.992-1.133 2.647-1.133 2.647s.075 1.136.206 2.247c.13 1.109 2.22.846 2.903.916.684.07.645 2.137-.142 1.986-.513-.052-3.758-.516-4.18-1.555-.42-1.039-1.035-2.28-1.035-2.28s-8.727 1.099-12.309 5.12c1.456.88 3.76 7.74 3.76 7.74" fill="#377ebf"/><g clip-path="url(#h)" transform="matrix(.13333 0 0 -.13333 0 152.653)"><path d="M527.629 1144.84c-16.734 0-28.309-3.97-32.703-12.83 71.875-86.2 86.812-191.744 85.75-269.112l215.949-14.402 146.656 24.172c9.524 13.578 8.051 29.91-1.578 47.754-24.027 44.469-98.828 98.288-180.644 142.068 7.394-6.91 13.011-15.89 15.855-26.38 8.121-29.98-9.613-60.876-39.594-68.989a56.184 56.184 0 0 0-14.73-1.969c-24.781 0-47.485 16.496-54.266 41.558-8.121 29.99 9.61 60.88 39.59 69a56.418 56.418 0 0 0 14.731 1.97c3.816 0 7.582-.39 11.242-1.14-79.707 39.78-161.453 68.3-206.258 68.3" fill="#40b93c"/><path d="M722.645 1077.68c-4.864 0-9.809-.64-14.731-1.97-29.98-8.12-47.711-39.01-39.59-69 6.781-25.062 29.485-41.558 54.266-41.558 4.859 0 9.808.633 14.73 1.969 29.981 8.113 47.715 39.009 39.594 68.989-2.844 10.49-8.461 19.47-15.855 26.38-7.567 7.06-16.981 11.96-27.172 14.05-3.66.75-7.426 1.14-11.242 1.14m4.195-111.828c-16.156 0-30.961 10.757-35.391 27.093-5.289 19.545 6.281 39.685 25.824 44.985 3.211.87 6.438 1.28 9.606 1.28 16.152 0 30.941-10.76 35.367-27.1 5.293-19.551-6.25-39.68-25.805-44.973a36.603 36.603 0 0 0-9.601-1.285" fill="#3ba03c"/></g><path d="M77.423 37.6c.416 4.884-1.64 14.304-1.64 14.304s16.354-8.054 44.66-11.918c4.914-.985 5.436-3.946 5.436-3.946s-38.454 8.05-39.352-4.83c-8.904-6.74-9.033 5.655-9.104 6.39M117.552 86.379l-.139-.788c-.05-.627-.144-1.537.069-2.676.192-1.144.686-2.545 1.715-3.935a9.406 9.406 0 0 1 4.866-3.367c.301-.073.499-.157.898-.218.241-.043.485-.085.732-.13.535-.056 1.287-.137 1.867-.094 1.24.024 2.55.25 3.833.744a12.165 12.165 0 0 1 6.531 5.928c.192.363.36.741.496 1.136.159.388.288.788.385 1.201l.163.62.105.636c.051.373.134.615.156 1.125.028.453.068.932.07 1.381-.019.433-.038.869-.055 1.308-.096.873-.232 1.76-.476 2.636a15.411 15.411 0 0 1-6.795 9.073c-.43.284-.888.526-1.36.746a10.7 10.7 0 0 1-1.446.616 10.69 10.69 0 0 1-1.518.472c-.293.072-.44.123-.856.208l-.624.12c-2.151.35-4.23.36-6.401-.01-4.297-.714-8.52-3.017-11.596-6.637a19.887 19.887 0 0 1-3.581-6.268 19.268 19.268 0 0 1-.525-1.777l-.103-.453-.051-.227-.026-.114-.034-.207-.132-.715a24.457 24.457 0 0 1-.312-3.668c-.08-4.876 1.493-9.9 4.466-14.066a24.55 24.55 0 0 1 12.462-9.118c1.24-.41 2.64-.728 3.83-.922.457-.094 1.178-.188 1.848-.273.67-.082 1.265-.124 1.905-.174 2.523-.143 5.091-.043 7.649.397 5.099.844 10.272 2.95 14.501 6.594 2.124 1.794 3.935 3.986 5.422 6.353 1.426 2.401 2.524 4.98 3.2 7.612.337 1.315.586 2.636.764 3.952.164 1.54.238 1.929.32 3.843.046 2.762-.238 5.273-.675 7.704a58.823 58.823 0 0 1-4.257 13.61c-3.776 8.506-9.122 16.01-15.412 22.102-6.271 6.112-13.499 10.741-20.825 13.738-7.332 3.025-14.694 4.456-21.431 4.892-3.373.235-6.604.192-9.648 0a83.662 83.662 0 0 1-8.576-.96 98.025 98.025 0 0 1-13.536-3.156 127.295 127.295 0 0 1-8.405-2.892l-2.918-1.149-.024-.055.051-.025 3.03.785c1.98.49 4.893 1.179 8.626 1.836 3.73.652 8.283 1.3 13.502 1.567a82.105 82.105 0 0 0 17.333-.912c6.223-1.018 12.777-3.005 19.012-6.327 6.237-3.298 12.125-7.932 17.027-13.729a62.654 62.654 0 0 0 6.6-9.433 63.523 63.523 0 0 0 4.967-10.601c1.287-3.688 2.4-7.48 2.87-11.203.251-1.847.342-3.682.235-5.269-.004-.258-.257-2.024-.326-2.645a21.36 21.36 0 0 0-.512-2.444c-.856-3.16-2.391-5.882-4.62-8.065-2.224-2.174-5.182-3.805-8.478-4.596-1.643-.4-3.36-.58-5.078-.6-.419.009-.884.01-1.267.032-.384.026-.715.026-1.3.105-.905.083-1.566.224-2.335.425-2.96.783-5.619 2.562-7.5 4.96-3.84 4.69-4.332 12.011-1.194 16.378 1.568 2.256 3.959 3.922 6.56 4.607 1.271.363 2.698.47 3.914.395l.633-.063.378-.062c.307-.04.61-.094.901-.187.3-.07.593-.153.872-.274a5.04 5.04 0 0 0 .836-.358c2.179-1.063 3.872-2.981 4.704-5.145.216-.54.358-1.097.486-1.655l.124-.844.05-.745c.046-.196-.022-.645-.033-.963l-.017-.259-.008-.13-.006-.065c.007.034-.021-.166.014.06l-.063-.385a4.093 4.093 0 0 0-.157-.758 4.121 4.121 0 0 0-.23-.73c-.704-1.914-2.173-3.411-3.82-4.239a7.663 7.663 0 0 0-2.547-.804c-.466-.083-.747-.074-1.21-.092l-.743.046c-.086-.01-.352.05-.518.069a6.478 6.478 0 0 0-3.6 1.933c-.846.907-1.342 1.896-1.582 2.739-.264.856-.256 1.532-.289 1.953l.05.797a.938.938 0 0 1-1.858.222" fill="#3ba03c"/><path d="M54.068 141.077s2.088.616 5.72 1.755c1.8.628 4.05 1.148 6.602 1.805 2.533.724 5.479 1.2 8.646 1.859 1.583.348 3.27.473 4.991.733.863.12 1.74.239 2.63.362l2.727.191c1.843.133 3.733.305 5.67.242 1.935-.013 3.91.06 5.91-.148l3.023-.21c1.011-.098 2.02-.287 3.04-.427 1.015-.171 2.05-.262 3.064-.498l3.056-.684c.51-.12 1.028-.216 1.535-.354l1.51-.466c1.006-.312 2.017-.622 3.03-.936l2.958-1.174 1.478-.595 1.43-.703c3.887-1.735 7.477-4.065 10.84-6.553 3.368-2.5 6.36-5.374 9.09-8.301 2.717-2.948 5.037-6.073 7.113-9.118 2.046-3.07 3.736-6.132 5.206-9.007 1.406-2.907 2.58-5.632 3.492-8.101.879-2.477 1.564-4.676 1.968-6.524.44-1.84.656-3.313.755-4.325.064-1.011.053-1.559.053-1.559s.063.54.094 1.564c-.016 1.021-.055 2.535-.387 4.42-.277 1.897-.812 4.162-1.53 6.735a71.725 71.725 0 0 1-3.04 8.441c-1.343 3.005-2.913 6.224-4.914 9.44-2.016 3.198-4.276 6.517-7.039 9.613-.645.811-1.406 1.532-2.12 2.308-.725.764-1.444 1.545-2.245 2.254-.785.725-1.575 1.455-2.368 2.19l-2.547 2.037c-3.484 2.618-7.217 5.081-11.267 6.92l-1.502.722-1.548.612-3.098 1.204-3.169.955-1.577.472c-.529.14-1.067.239-1.6.359l-3.186.682c-1.059.22-2.134.295-3.191.448-1.06.123-2.109.294-3.158.372-1.05.05-2.093.102-3.128.15-2.067.162-4.1.069-6.087-.004-1.99-.01-3.92-.254-5.798-.456l-2.777-.298-2.664-.477c-1.739-.352-3.442-.565-5.028-.998-3.185-.806-6.11-1.498-8.623-2.412-2.53-.84-4.744-1.52-6.494-2.27a400.607 400.607 0 0 1-5.546-2.247" fill="#307633"/></svg>